<svg width="27" height="27" viewBox="0 0 27 27" fill="none" xmlns="http://www.w3.org/2000/svg">
<path d="M18.405 15.75C18.495 15.0075 18.5625 14.265 18.5625 13.5C18.5625 12.735 18.495 11.9925 18.405 11.25H22.2075C22.3875 11.97 22.5 12.7238 22.5 13.5C22.5 14.2762 22.3875 15.03 22.2075 15.75M16.4137 22.005C17.0887 20.7562 17.6063 19.4062 17.9663 18H21.285C20.1951 19.8768 18.4659 21.2985 16.4137 22.005ZM16.1325 15.75H10.8675C10.755 15.0075 10.6875 14.265 10.6875 13.5C10.6875 12.735 10.755 11.9812 10.8675 11.25H16.1325C16.2338 11.9812 16.3125 12.735 16.3125 13.5C16.3125 14.265 16.2338 15.0075 16.1325 15.75ZM13.5 22.455C12.5662 21.105 11.8125 19.6087 11.3512 18H15.6488C15.1875 19.6087 14.4338 21.105 13.5 22.455ZM9 9H5.715C6.79347 7.11791 8.52149 5.6939 10.575 4.995C9.9 6.24375 9.39375 7.59375 9 9ZM5.715 18H9C9.39375 19.4062 9.9 20.7562 10.575 22.005C8.52555 21.2988 6.79982 19.8767 5.715 18ZM4.7925 15.75C4.6125 15.03 4.5 14.2762 4.5 13.5C4.5 12.7238 4.6125 11.97 4.7925 11.25H8.595C8.505 11.9925 8.4375 12.735 8.4375 13.5C8.4375 14.265 8.505 15.0075 8.595 15.75M13.5 4.53375C14.4338 5.88375 15.1875 7.39125 15.6488 9H11.3512C11.8125 7.39125 12.5662 5.88375 13.5 4.53375ZM21.285 9H17.9663C17.6136 7.60681 17.0923 6.26187 16.4137 4.995C18.4837 5.70375 20.205 7.1325 21.285 9ZM13.5 2.25C7.27875 2.25 2.25 7.3125 2.25 13.5C2.25 16.4837 3.43526 19.3452 5.54505 21.455C6.58971 22.4996 7.8299 23.3283 9.19481 23.8936C10.5597 24.459 12.0226 24.75 13.5 24.75C16.4837 24.75 19.3452 23.5647 21.455 21.455C23.5647 19.3452 24.75 16.4837 24.75 13.5C24.75 12.0226 24.459 10.5597 23.8936 9.19481C23.3283 7.8299 22.4996 6.58971 21.455 5.54505C20.4103 4.50039 19.1701 3.67172 17.8052 3.10636C16.4403 2.54099 14.9774 2.25 13.5 2.25Z" fill="#828282"/>
</svg>
